<?xml version="1.0" encoding="UTF-8"?>
<svg width="1115px" height="929px" viewBox="0 0 1115 929" version="1.1" xmlns="http://www.w3.org/2000/svg" xmlns:xlink="http://www.w3.org/1999/xlink">
    <!-- Generator: Sketch 46 (44423) - http://www.bohemiancoding.com/sketch -->
    <title>Group 12</title>
    <desc>Created with Sketch.</desc>
    <defs></defs>
    <g id="Page-1" stroke="none" stroke-width="1" fill="none" fill-rule="evenodd" opacity="0.33">
        <g id="desk-homepage" transform="translate(-44.000000, -59.000000)" stroke="#20D3A3">
            <g id="Group-12" transform="translate(42.000000, 61.000000)">
                <g id="Group-2-Copy-2" transform="translate(1052.760931, 143.760931) rotate(45.000000) translate(-1052.760931, -143.760931) translate(1043.260931, 60.260931)">
                    <path d="M9.5,144.5 L9.5,11.6482323" id="Line-2" stroke-width="5" stroke-linecap="square"></path>
                    <circle id="Oval-3" stroke-width="4" fill="#0F3E3F" cx="9.34710501" cy="9.34710501" r="9.34710501"></circle>
                    <circle id="Oval-3" stroke-width="4" fill="#0F3E3F" cx="9.34710501" cy="157.347105" r="9.34710501"></circle>
                </g>
                <g id="Group-2-Copy-6" transform="translate(1052.760931, 213.760931) rotate(45.000000) translate(-1052.760931, -213.760931) translate(1043.260931, 130.260931)">
                    <path d="M9.5,144.5 L9.5,11.6482323" id="Line-2" stroke-width="5" stroke-linecap="square"></path>
                    <circle id="Oval-3" stroke-width="4" fill="#0F3E3F" cx="9.34710501" cy="9.34710501" r="9.34710501"></circle>
                    <circle id="Oval-3" stroke-width="4" fill="#0F3E3F" cx="9.34710501" cy="157.347105" r="9.34710501"></circle>
                </g>
                <g id="Group-2-Copy-7" transform="translate(1052.760931, 292.760931) rotate(45.000000) translate(-1052.760931, -292.760931) translate(1043.260931, 209.260931)">
                    <path d="M9.5,144.5 L9.5,11.6482323" id="Line-2" stroke-width="5" stroke-linecap="square"></path>
                    <circle id="Oval-3" stroke-width="4" fill="#0F3E3F" cx="9.34710501" cy="9.34710501" r="9.34710501"></circle>
                    <circle id="Oval-3" stroke-width="4" fill="#0F3E3F" cx="9.34710501" cy="157.347105" r="9.34710501"></circle>
                </g>
                <g id="Group-2-Copy-8" transform="translate(1052.760931, 369.760931) rotate(45.000000) translate(-1052.760931, -369.760931) translate(1043.260931, 286.260931)">
                    <path d="M9.5,144.5 L9.5,11.6482323" id="Line-2" stroke-width="5" stroke-linecap="square"></path>
                    <circle id="Oval-3" stroke-width="4" fill="#0F3E3F" cx="9.34710501" cy="9.34710501" r="9.34710501"></circle>
                    <circle id="Oval-3" stroke-width="4" fill="#0F3E3F" cx="9.34710501" cy="157.347105" r="9.34710501"></circle>
                </g>
                <g id="Group-2-Copy-2" transform="translate(132.000000, 194.000000)">
                    <path d="M9.5,357.5 L9.5,19.5" id="Line-2" stroke-width="5" stroke-linecap="square"></path>
                    <circle id="Oval-3" stroke-width="4" fill="#0F3E3F" cx="9.34710501" cy="9.34710501" r="9.34710501"></circle>
                    <circle id="Oval-3" stroke-width="4" fill="#0F3E3F" cx="9.34710501" cy="370.347105" r="9.34710501"></circle>
                </g>
                <g id="Group-2-Copy-10" transform="translate(1094.000000, 367.000000)">
                    <path d="M9.5,313.5 L9.5,19.5" id="Line-2" stroke-width="5" stroke-linecap="square"></path>
                    <circle id="Oval-3" stroke-width="4" fill="#0F3E3F" cx="9.34710501" cy="9.34710501" r="9.34710501"></circle>
                    <circle id="Oval-3" stroke-width="4" fill="#0F3E3F" cx="9.34710501" cy="323.347105" r="9.34710501"></circle>
                </g>
                <g id="Group-2" transform="translate(6.000000, 194.000000)">
                    <path d="M9.5,604.814445 L9.5,19.5" id="Line-2" stroke-width="5" stroke-linecap="square"></path>
                    <circle id="Oval-3" stroke-width="4" fill="#0F3E3F" cx="9.34710501" cy="9.34710501" r="9.34710501"></circle>
                    <circle id="Oval-3" stroke-width="4" fill="#0F3E3F" cx="9.34710501" cy="619.347105" r="9.34710501"></circle>
                </g>
                <g id="Group-2-Copy" transform="translate(69.000000, 194.000000)">
                    <path d="M9.5,638.5 L9.5,19.5" id="Line-2" stroke-width="5" stroke-linecap="square"></path>
                    <circle id="Oval-3" stroke-width="4" fill="#0F3E3F" cx="9.34710501" cy="9.34710501" r="9.34710501"></circle>
                    <circle id="Oval-3" stroke-width="4" fill="#0F3E3F" cx="9.34710501" cy="650.347105" r="9.34710501"></circle>
                </g>
                <g id="Group-3" transform="translate(566.000000, 735.000000)">
                    <g id="Group-2-Copy-2" transform="translate(190.000000, 180.500000) rotate(90.000000) translate(-190.000000, -180.500000) translate(180.500000, -9.500000)">
                        <path d="M9.5,357.5 L9.5,19.5" id="Line-2" stroke-width="5" stroke-linecap="square"></path>
                        <circle id="Oval-3" stroke-width="4" fill="#0F3E3F" cx="9.34710501" cy="9.34710501" r="9.34710501"></circle>
                        <circle id="Oval-3" stroke-width="4" fill="#0F3E3F" cx="9.34710501" cy="370.347105" r="9.34710501"></circle>
                    </g>
                    <g id="Group-2-Copy-5" transform="translate(459.095454, 90.003571) rotate(45.000000) translate(-459.095454, -90.003571) translate(449.595454, -27.496429)">
                        <path d="M10.5,234.5 L10.5,19.2771286" id="Line-2" stroke-width="5" stroke-linecap="square"></path>
                        <circle id="Oval-3" stroke-width="4" fill="#0F3E3F" cx="9.34710501" cy="9.34710501" r="9.34710501"></circle>
                    </g>
                </g>
                <g id="Group-3" transform="translate(453.500000, 85.000000) rotate(180.000000) translate(-453.500000, -85.000000) translate(0.000000, 0.000000)">
                    <g id="Group-2-Copy-2" transform="translate(378.000000, 160.500000) rotate(90.000000) translate(-378.000000, -160.500000) translate(368.500000, -217.500000)">
                        <path d="M9.5,736.517434 L9.5,19.5" id="Line-2" stroke-width="5" stroke-linecap="square"></path>
                        <circle id="Oval-3" stroke-width="4" fill="#0F3E3F" cx="9.34710501" cy="9.34710501" r="9.34710501"></circle>
                        <circle id="Oval-3" stroke-width="4" fill="#0F3E3F" cx="9.34710501" cy="746.347105" r="9.34710501"></circle>
                    </g>
                    <g id="Group-2-Copy-5" transform="translate(826.256620, 80.256620) rotate(45.000000) translate(-826.256620, -80.256620) translate(816.756620, -23.743380)">
                        <path d="M9.5,207.5 L9.5,14.8578644" id="Line-2" stroke-width="5" stroke-linecap="square"></path>
                        <circle id="Oval-3" stroke-width="4" fill="#0F3E3F" cx="9.34710501" cy="9.34710501" r="9.34710501"></circle>
                    </g>
                </g>
                <g id="Group-2-Copy-3" transform="translate(553.000000, 607.500000) rotate(90.000000) translate(-553.000000, -607.500000) translate(543.500000, 189.500000)">
                    <path d="M9.5,813.5 L9.5,17.2487834" id="Line-2" stroke-width="5" stroke-linecap="square"></path>
                    <circle id="Oval-3" stroke-width="4" fill="#0F3E3F" cx="9.34710501" cy="9.34710501" r="9.34710501"></circle>
                    <circle id="Oval-3" stroke-width="4" fill="#0F3E3F" cx="9.34710501" cy="826.347105" r="9.34710501"></circle>
                </g>
                <g id="Group-5" transform="translate(765.000000, 98.000000)">
                    <path d="M9.5,22.5 L9.5,40.5" id="Line-6" stroke-width="5" stroke-linecap="square"></path>
                    <path d="M10.5,42.5 L101.5,136.5" id="Line-7" stroke-width="5" stroke-linecap="square"></path>
                    <circle id="Oval-3" stroke-width="4" fill="#0F3E3F" cx="9.34710501" cy="9.34710501" r="9.34710501"></circle>
                    <circle id="Oval-3-Copy" stroke-width="4" fill="#0F3E3F" cx="102.347105" cy="168.347105" r="9.34710501"></circle>
                    <path d="M102.5,139.5 L102.5,158.5" id="Line-8" stroke-width="5" stroke-linecap="square"></path>
                </g>
                <path d="M907.5,167.5 L960.5,167.5" id="Line-5" stroke-width="5" stroke-linecap="square"></path>
                <circle id="Oval-3" stroke-width="4" fill="#0F3E3F" cx="969.347105" cy="167.347105" r="9.34710501"></circle>
                <g id="Group-2-Copy-9" transform="translate(872.698485, 133.355339) scale(-1, 1) rotate(45.000000) translate(-872.698485, -133.355339) translate(863.198485, 86.855339)">
                    <path d="M9.62132034,92.0807358 L9.62132034,13.5269119" id="Line-2" stroke-width="5" stroke-linecap="square"></path>
                    <circle id="Oval-3" stroke-width="4" fill="#0F3E3F" cx="9.34710501" cy="9.34710501" r="9.34710501"></circle>
                </g>
                <g id="Group-2-Copy-11" transform="translate(476.000000, 68.500000) rotate(90.000000) translate(-476.000000, -68.500000) translate(466.500000, -121.500000)">
                    <path d="M9.5,357.5 L9.5,19.5" id="Line-2" stroke-width="5" stroke-linecap="square"></path>
                    <circle id="Oval-3" stroke-width="4" fill="#0F3E3F" cx="9.34710501" cy="9.34710501" r="9.34710501"></circle>
                    <circle id="Oval-3" stroke-width="4" fill="#0F3E3F" cx="9.34710501" cy="370.347105" r="9.34710501"></circle>
                </g>
            </g>
        </g>
    </g>
</svg>