<?xml version="1.0" encoding="UTF-8"?>
<svg width="55px" height="55px" viewBox="0 0 55 55" version="1.1" xmlns="http://www.w3.org/2000/svg" xmlns:xlink="http://www.w3.org/1999/xlink">
    <!-- Generator: Sketch 46 (44423) - http://www.bohemiancoding.com/sketch -->
    <title>light</title>
    <desc>Created with Sketch.</desc>
    <defs>
        <circle id="path-1" cx="27.4987181" cy="27.4987181" r="27.4987181"></circle>
    </defs>
    <g id="Page-1" stroke="none" stroke-width="1" fill="none" fill-rule="evenodd">
        <g id="desk-homepage" transform="translate(-1030.000000, -93.000000)">
            <g id="light" transform="translate(1030.000000, 93.000000)">
                <g id="Oval-5">
                    <use fill="#EEEAEA" fill-rule="evenodd" xlink:href="#path-1"></use>
                    <circle stroke="#C3C3C3" stroke-width="3" cx="27.4987181" cy="27.4987181" r="25.9987181"></circle>
                </g>
                <path d="M20.3490514,7.69964106 C12.0466221,11.9081817 7.2801776,17.0412757 6.04971797,23.0989232 C5.49974361,28.5986668 5.49974361,35.1983591 13.1993847,42.8980002 C20.8990257,50.5976412 35.1118598,47.7896741 39.598154,45.0978976 C39.0481796,40.1481284 37.3982566,30.7985642 25.848795,25.848795 C18.1491539,22.5489488 16.315906,16.4992308 20.3490514,7.69964106 Z" id="Path-6" fill-opacity="0.390000015" fill="#B3B3B3"></path>
                <path d="M39.3830313,33.6051741 C39.7332657,35.4783853 39.5800522,37.0716523 38.9233908,38.3849751 C38.1748358,39.8820851 37.7240019,40.7710694 37.5708891,41.0519281 L38.0449725,45.9201799 L38.0448282,45.9201939 C38.0555419,46.0302106 38.1534132,46.1107115 38.2634298,46.0999978 C38.3287072,46.0936409 38.3867281,46.0557051 38.4187312,45.9984569 C40.5434683,42.1976678 41.5393295,39.6322009 41.4063151,38.3020563 C41.2808827,37.0477325 40.6743672,35.4373694 39.5867685,33.4709669 L39.3765788,33.5872208 C39.3796765,33.5928214 39.381855,33.598883 39.3830313,33.6051741 Z" id="Path-4" fill="#FFFFFF" opacity="0.735657649" transform="translate(39.494479, 40.179207) rotate(13.000000) translate(-39.494479, -40.179207) "></path>
                <path d="M43.1039009,22.5633481 C42.7530595,23.9498113 42.3694424,25.1943077 41.9530496,26.2968371 C41.4859795,27.5335506 41.0325792,28.0145203 40.5928486,27.7397461 L44.9864737,37.9812662 L44.986487,37.9812604 C45.0300318,38.0827632 45.1476161,38.1297474 45.2491189,38.0862026 C45.2965397,38.065859 45.3342619,38.0279734 45.3544002,37.9804651 C47.3720351,33.2206717 48.3131871,30.1641212 48.1778564,28.8108138 C48.0441353,27.4736034 46.5205705,25.34502 43.6071619,22.4250636 L43.6072042,22.4250213 C43.4901552,22.3077092 43.3001679,22.307496 43.1828558,22.424545 C43.1444831,22.4628317 43.1171986,22.510798 43.1039009,22.5633481 Z" id="Path-4-Copy" fill="#FFFFFF" opacity="0.735657649" transform="translate(44.391732, 30.219678) rotate(13.000000) translate(-44.391732, -30.219678) "></path>
            </g>
        </g>
    </g>
</svg>