<?xml version="1.0" encoding="utf-8"?>
<!-- Generator: Adobe Illustrator 21.1.0, SVG Export Plug-In . SVG Version: 6.00 Build 0)  -->
<svg version="1.1" id="Layer_1" xmlns="http://www.w3.org/2000/svg" xmlns:xlink="http://www.w3.org/1999/xlink" x="0px" y="0px"
	 viewBox="0 0 1200 1024" style="enable-background:new 0 0 1200 1024;" xml:space="preserve">
<style type="text/css">
	.st0{opacity:0.33;}
	.st1{fill:none;stroke:#20D3A3;stroke-width:5;stroke-linecap:square;}
	.st2{fill:#0F3E3F;stroke:#20D3A3;stroke-width:4;}
	.st3{fill:none;}
	.st0:hover {opacity:0.33;}
	.st1:hover {fill:none;stroke:pink;stroke-width:5;stroke-linecap:square;}
	.st2:hover {fill:#0F3E3F;stroke:pink;stroke-width:4;}
	.st3:hover {fill:none;}
	*{pointer-events: none;}
</style>
<title>Group 12</title>
<desc>Created with Sketch.</desc>
<g id="Page-1" class="st0">
	<g id="desk-homepage" transform="translate(-44.000000, -59.000000)">
		<g id="Group-12">
			
				<g id="Group-2-Copy-2" transform="translate(1094.760931, 204.760931) rotate(45.000000) translate(-1094.760931, -204.760931) translate(1085.260931, 121.260931)">
				<path id="Line-2" class="st1" d="M81.3,156.2V23.3"/>
				
					<ellipse id="Oval-3" transform="matrix(0.7071 -0.7071 0.7071 0.7071 8.8996 63.5143)" class="st2" cx="81.1" cy="21" rx="9.3" ry="9.3"/>
				
					<ellipse id="Oval-3_1_" transform="matrix(0.7071 -0.7071 0.7071 0.7071 -95.7521 106.8625)" class="st2" cx="81.1" cy="169" rx="9.3" ry="9.3"/>
			</g>
			
				<g id="Group-2-Copy-6" transform="translate(1094.760931, 274.760931) rotate(45.000000) translate(-1094.760931, -274.760931) translate(1085.260931, 191.260931)">
				<path id="Line-2_1_" class="st1" d="M81.3,156.2V23.3"/>
				
					<ellipse id="Oval-3_2_" transform="matrix(0.7071 -0.7071 0.7071 0.7071 8.8996 63.5143)" class="st2" cx="81.1" cy="21" rx="9.3" ry="9.3"/>
				
					<ellipse id="Oval-3_3_" transform="matrix(0.7071 -0.7071 0.7071 0.7071 -95.7521 106.8625)" class="st2" cx="81.1" cy="169" rx="9.3" ry="9.3"/>
			</g>
			
				<g id="Group-2-Copy-7" transform="translate(1094.760931, 353.760931) rotate(45.000000) translate(-1094.760931, -353.760931) translate(1085.260931, 270.260931)">
				<path id="Line-2_2_" class="st1" d="M81.3,156.2V23.3"/>
				
					<ellipse id="Oval-3_4_" transform="matrix(0.7071 -0.7071 0.7071 0.7071 8.8996 63.5143)" class="st2" cx="81.1" cy="21" rx="9.3" ry="9.3"/>
				
					<ellipse id="Oval-3_5_" transform="matrix(0.7071 -0.7071 0.7071 0.7071 -95.7521 106.8625)" class="st2" cx="81.1" cy="169" rx="9.3" ry="9.3"/>
			</g>
			
				<g id="Group-2-Copy-8" transform="translate(1094.760931, 430.760931) rotate(45.000000) translate(-1094.760931, -430.760931) translate(1085.260931, 347.260931)">
				<path id="Line-2_3_" class="st1" d="M81.3,156.2V23.3"/>
				
					<ellipse id="Oval-3_6_" transform="matrix(0.7071 -0.7071 0.7071 0.7071 8.8996 63.5143)" class="st2" cx="81.1" cy="21" rx="9.3" ry="9.3"/>
				
					<ellipse id="Oval-3_7_" transform="matrix(0.7071 -0.7071 0.7071 0.7071 -95.7521 106.8625)" class="st2" cx="81.1" cy="169" rx="9.3" ry="9.3"/>
			</g>
			<g id="Group-2-Copy-2_1_" transform="translate(174.000000, 255.000000)">
				<path id="Line-2_4_" class="st1" d="M52,416.5v-338"/>
				<circle id="Oval-3_8_" class="st2" cx="51.8" cy="68.3" r="9.3"/>
				<circle id="Oval-3_9_" class="st2" cx="51.8" cy="429.3" r="9.3"/>
			</g>
			<g id="Group-2-Copy-10" transform="translate(1136.000000, 428.000000)">
				<path id="Line-2_5_" class="st1" d="M52,372.5v-294"/>
				<circle id="Oval-3_10_" class="st2" cx="51.8" cy="68.3" r="9.3"/>
				<circle id="Oval-3_11_" class="st2" cx="51.8" cy="382.3" r="9.3"/>
			</g>
			<g id="Group-2" transform="translate(48.000000, 255.000000)">
				<path id="Line-2_6_" class="st1" d="M52,663.8V78.5"/>
				<circle id="Oval-3_12_" class="st2" cx="51.8" cy="68.3" r="9.3"/>
				<circle id="Oval-3_13_" class="st2" cx="51.8" cy="678.3" r="9.3"/>
			</g>
			<g id="Group-2-Copy" transform="translate(111.000000, 255.000000)">
				<path id="Line-2_7_" class="st1" d="M52,697.5v-619"/>
				<circle id="Oval-3_14_" class="st2" cx="51.8" cy="68.3" r="9.3"/>
				<circle id="Oval-3_15_" class="st2" cx="51.8" cy="709.3" r="9.3"/>
			</g>
			<g id="Group-3" transform="translate(608.000000, 796.000000)">
				
					<g id="Group-2-Copy-2_2_" transform="translate(190.000000, 180.500000) rotate(90.000000) translate(-190.000000, -180.500000) translate(180.500000, -9.500000)">
					<path id="Line-2_8_" class="st1" d="M68.5,315V-23"/>
					<circle id="Oval-3_16_" class="st2" cx="68.3" cy="-33.2" r="9.3"/>
					<circle id="Oval-3_17_" class="st2" cx="68.3" cy="327.8" r="9.3"/>
				</g>
				
					<g id="Group-2-Copy-5" transform="translate(459.095454, 90.003571) rotate(45.000000) translate(-459.095454, -90.003571) translate(449.595454, -27.496429)">
					<path id="Line-2_9_" class="st1" d="M82.3,246.2V30.9"/>
					
						<ellipse id="Oval-3_18_" transform="matrix(0.7071 -0.7071 0.7071 0.7071 8.8996 63.5143)" class="st2" cx="81.1" cy="21" rx="9.3" ry="9.3"/>
				</g>
			</g>
			
				<g id="Group-3_1_" transform="translate(495.500000, 146.000000) rotate(180.000000) translate(-495.500000, -146.000000) translate(42.000000, 61.000000)">
				
					<g id="Group-2-Copy-2_3_" transform="translate(378.000000, 160.500000) rotate(90.000000) translate(-378.000000, -160.500000) translate(368.500000, -217.500000)">
					<path id="Line-2_10_" class="st1" d="M-49.5,779V62"/>
					<circle id="Oval-3_19_" class="st2" cx="-49.7" cy="51.8" r="9.3"/>
					<circle id="Oval-3_20_" class="st2" cx="-49.7" cy="788.8" r="9.3"/>
				</g>
				
					<g id="Group-2-Copy-5_1_" transform="translate(826.256620, 80.256620) rotate(45.000000) translate(-826.256620, -80.256620) translate(816.756620, -23.743380)">
					<path id="Line-2_11_" class="st1" d="M-62.3,195.8V3.2"/>
					
						<ellipse id="Oval-3_21_" transform="matrix(0.7071 -0.7071 0.7071 0.7071 -16.643 -44.8201)" class="st2" cx="-62.4" cy="-2.3" rx="9.3" ry="9.3"/>
				</g>
			</g>
			
				<g id="Group-2-Copy-3" transform="translate(595.000000, 668.500000) rotate(90.000000) translate(-595.000000, -668.500000) translate(585.500000, 250.500000)">
				<path id="Line-2_12_" class="st1" d="M68.5,771V-25.3"/>
				<circle id="Oval-3_22_" class="st2" cx="68.3" cy="-33.2" r="9.3"/>
				<circle id="Oval-3_23_" class="st2" cx="68.3" cy="783.8" r="9.3"/>
			</g>
			<g id="Group-5" transform="translate(807.000000, 159.000000)">
				<path id="Line-6" class="st1" d="M52,81.5v18"/>
				<path id="Line-7" class="st1" d="M53,101.5l91,94"/>
				<circle id="Oval-3_24_" class="st2" cx="51.8" cy="68.3" r="9.3"/>
				<circle id="Oval-3-Copy" class="st2" cx="144.8" cy="227.3" r="9.3"/>
				<path id="Line-8" class="st1" d="M145,198.5v19"/>
			</g>
			<path id="Line-5" class="st1" d="M992,287.5h53"/>
			<circle id="Oval-3_25_" class="st2" cx="1053.8" cy="287.3" r="9.3"/>
			
				<g id="Group-2-Copy-9" transform="translate(914.698485, 194.355339) scale(-1, 1) rotate(45.000000) translate(-914.698485, -194.355339) translate(905.198485, 147.855339)">
				<path id="Line-2_13_" class="st1" d="M21.3,163.9V85.3"/>
				
					<ellipse id="Oval-3_26_" transform="matrix(0.7071 -0.7071 0.7071 0.7071 -51.2044 38.6184)" class="st2" cx="21" cy="81.1" rx="9.3" ry="9.3"/>
			</g>
			
				<g id="Group-2-Copy-11" transform="translate(518.000000, 129.500000) rotate(90.000000) translate(-518.000000, -129.500000) translate(508.500000, -60.500000)">
				<path id="Line-2_14_" class="st1" d="M68.5,315V-23"/>
				<circle id="Oval-3_27_" class="st2" cx="68.3" cy="-33.2" r="9.3"/>
				<circle id="Oval-3_28_" class="st2" cx="68.3" cy="327.8" r="9.3"/>
			</g>
			<rect id="Rectangle-4" x="42.5" y="59" class="st3" width="1200" height="1024"/>
		</g>
	</g>
</g>
</svg>
