<?xml version="1.0" encoding="utf-8"?>
<!-- Generator: Adobe Illustrator 21.1.0, SVG Export Plug-In . SVG Version: 6.00 Build 0)  -->
<svg version="1.1" id="Layer_1" xmlns="http://www.w3.org/2000/svg" xmlns:xlink="http://www.w3.org/1999/xlink" x="0px" y="0px"
	 viewBox="0 0 1200 941.9" style="enable-background:new 0 0 1200 941.9;" xml:space="preserve">
<style type="text/css">
	.st0{opacity:0.3282;}
	.st1{fill:none;stroke:#20D3A3;stroke-width:5;stroke-linecap:square;}
	.st2{fill:#0F3E3F;stroke:#20D3A3;stroke-width:4;}
	.st3{fill:#0F3E3F;stroke:#20D3A3;stroke-width:5;stroke-linecap:square;}
</style>
<title>traces</title>
<desc>Created with Sketch.</desc>
<g id="Page-1" class="st0">
	<g id="desk-template" transform="translate(-44.000000, -145.000000)">
		<g id="traces" transform="translate(42.000000, 147.000000)">
			<g id="Group-5" transform="translate(825.000000, 189.000000)">
				<path id="Line-6" class="st1" d="M60,137.5v18"/>
				<path id="Line-7" class="st1" d="M61,157.5l91,94"/>
				<circle id="Oval-3" class="st2" cx="59.8" cy="124.3" r="9.3"/>
				<circle id="Oval-3-Copy" class="st2" cx="152.8" cy="283.3" r="9.3"/>
				<path id="Line-8" class="st1" d="M153,254.5v19"/>
			</g>
			<g id="Group-5_1_" transform="translate(266.000000, 612.000000)">
				<path id="Line-6_1_" class="st1" d="M60,137.5v18"/>
				<path id="Line-7_1_" class="st1" d="M61,157.5l91,94"/>
				<circle id="Oval-3_1_" class="st2" cx="59.8" cy="124.3" r="9.3"/>
				<circle id="Oval-3-Copy_1_" class="st2" cx="152.8" cy="283.3" r="9.3"/>
				<path id="Line-8_1_" class="st1" d="M153,254.5v19"/>
			</g>
			<g id="Group-2-Copy-13" transform="translate(1067.000000, 188.000000)">
				<path id="Line-2" class="st1" d="M60,259.5V126.6"/>
				<circle id="Oval-3_2_" class="st2" cx="59.8" cy="124.3" r="9.3"/>
				<circle id="Oval-3_3_" class="st2" cx="59.8" cy="272.3" r="9.3"/>
			</g>
			<g id="Group-2-Copy-17" transform="translate(359.000000, 336.000000)">
				<path id="Line-2_1_" class="st1" d="M60,322.5V126.6"/>
				<circle id="Oval-3_4_" class="st2" cx="59.8" cy="124.3" r="9.3"/>
				<circle id="Oval-3_5_" class="st2" cx="59.8" cy="334.3" r="9.3"/>
			</g>
			<g id="Group-3" transform="translate(554.000000, 600.260931)">
				
					<g id="Group-2-Copy-2" transform="translate(190.000000, 180.500000) rotate(90.000000) translate(-190.000000, -180.500000) translate(180.500000, -9.500000)">
					<path id="Line-2_2_" class="st1" d="M124.5,307V-31"/>
					<circle id="Oval-3_6_" class="st2" cx="124.3" cy="-41.2" r="9.3"/>
					<circle id="Oval-3_7_" class="st2" cx="124.3" cy="319.8" r="9.3"/>
				</g>
				
					<g id="Group-2-Copy-5" transform="translate(459.095454, 90.003571) rotate(45.000000) translate(-459.095454, -90.003571) translate(449.595454, -27.496429)">
					<path id="Line-2_3_" class="st1" d="M127.5,280.1V64.9"/>
					
						<ellipse id="Oval-3_8_" transform="matrix(-0.7071 0.7071 -0.7071 -0.7071 254.685 4.4427)" class="st2" cx="126.4" cy="55" rx="9.3" ry="9.3"/>
				</g>
			</g>
			
				<g id="Group-2-Copy-3" transform="translate(677.500000, 695.500000) rotate(90.000000) translate(-677.500000, -695.500000) translate(668.000000, 494.000000)">
				<path id="Line-2_4_" class="st1" d="M124.5,335.8V-33.3"/>
				<circle id="Oval-3_9_" class="st2" cx="124.3" cy="-41.2" r="9.3"/>
				<circle id="Oval-3_10_" class="st2" cx="124.3" cy="342.8" r="9.3"/>
			</g>
			
				<g id="Group-2-Copy-4" transform="translate(618.500000, 621.500000) rotate(90.000000) translate(-618.500000, -621.500000) translate(609.000000, 361.000000)">
				<path id="Line-2_5_" class="st1" d="M124.5,453.8V-35"/>
				<circle id="Oval-3_11_" class="st2" cx="124.3" cy="-41.2" r="9.3"/>
				<circle id="Oval-3_12_" class="st2" cx="124.3" cy="460.8" r="9.3"/>
			</g>
			
				<g id="Group-2-Copy-2_1_" transform="translate(73.760931, 276.760931) rotate(45.000000) translate(-73.760931, -276.760931) translate(64.260931, 193.260931)">
				<path id="Line-2_6_" class="st1" d="M126.5,190.1V57.3"/>
				
					<ellipse id="Oval-3_13_" transform="matrix(-0.7071 0.7071 -0.7071 -0.7071 254.685 4.4427)" class="st2" cx="126.4" cy="55" rx="9.3" ry="9.3"/>
				
					<ellipse id="Oval-3_14_" transform="matrix(-0.7071 0.7071 -0.7071 -0.7071 359.3346 257.093)" class="st2" cx="126.4" cy="203" rx="9.3" ry="9.3"/>
			</g>
			
				<g id="Group-2-Copy-15" transform="translate(669.760931, 401.760931) scale(-1, 1) rotate(45.000000) translate(-669.760931, -401.760931) translate(660.260931, 318.260931)">
				<path id="Line-2_7_" class="st1" d="M55.1,261.5V128.7"/>
				
					<ellipse id="Oval-3_15_" transform="matrix(0.7071 0.7071 -0.7071 0.7071 105.4603 -1.8842)" class="st2" cx="55" cy="126.4" rx="9.3" ry="-9.3"/>
				
					<ellipse id="Oval-3_16_" transform="matrix(0.7071 0.7071 -0.7071 0.7071 210.1107 41.4641)" class="st2" cx="55" cy="274.4" rx="9.3" ry="-9.3"/>
			</g>
			
				<g id="Group-2-Copy-16" transform="translate(779.760931, 401.760931) scale(-1, 1) rotate(45.000000) translate(-779.760931, -401.760931) translate(770.260931, 318.260931)">
				<path id="Line-2_8_" class="st1" d="M55.1,261.5V128.7"/>
				
					<ellipse id="Oval-3_17_" transform="matrix(0.7071 0.7071 -0.7071 0.7071 105.4603 -1.8842)" class="st2" cx="55" cy="126.4" rx="9.3" ry="-9.3"/>
				
					<ellipse id="Oval-3_18_" transform="matrix(0.7071 0.7071 -0.7071 0.7071 210.1107 41.4641)" class="st2" cx="55" cy="274.4" rx="9.3" ry="-9.3"/>
			</g>
			
				<g id="Group-2-Copy-6" transform="translate(73.760931, 376.500000) rotate(45.000000) translate(-73.760931, -376.500000) translate(64.260931, 293.000000)">
				<path id="Line-2_9_" class="st3" d="M126.5,190.1V57.3"/>
				
					<ellipse id="Oval-3_19_" transform="matrix(-0.7071 0.7071 -0.7071 -0.7071 254.685 4.4427)" class="st2" cx="126.4" cy="55" rx="9.3" ry="9.3"/>
				
					<ellipse id="Oval-3_20_" transform="matrix(-0.7071 0.7071 -0.7071 -0.7071 359.3346 257.093)" class="st2" cx="126.4" cy="203" rx="9.3" ry="9.3"/>
			</g>
			
				<g id="Group-2-Copy-7" transform="translate(73.760931, 485.500000) rotate(45.000000) translate(-73.760931, -485.500000) translate(64.260931, 402.000000)">
				<path id="Line-2_10_" class="st3" d="M126.5,190.1V57.3"/>
				
					<ellipse id="Oval-3_21_" transform="matrix(-0.7071 0.7071 -0.7071 -0.7071 254.685 4.4427)" class="st2" cx="126.4" cy="55" rx="9.3" ry="9.3"/>
				
					<ellipse id="Oval-3_22_" transform="matrix(-0.7071 0.7071 -0.7071 -0.7071 359.3346 257.093)" class="st2" cx="126.4" cy="203" rx="9.3" ry="9.3"/>
			</g>
			
				<g id="Group-2-Copy-11" transform="translate(896.000000, 99.500000) rotate(90.000000) translate(-896.000000, -99.500000) translate(886.500000, -90.500000)">
				<path id="Line-2_11_" class="st3" d="M124.5,307V-31"/>
				<circle id="Oval-3_23_" class="st2" cx="124.3" cy="-41.2" r="9.3"/>
				<circle id="Oval-3_24_" class="st2" cx="124.3" cy="319.8" r="9.3"/>
			</g>
			
				<g id="Group-2-Copy-14" transform="translate(548.000000, 262.500000) rotate(90.000000) translate(-548.000000, -262.500000) translate(538.500000, 72.500000)">
				<path id="Line-2_12_" class="st3" d="M124.5,307V-31"/>
				<circle id="Oval-3_25_" class="st2" cx="124.3" cy="-41.2" r="9.3"/>
				<circle id="Oval-3_26_" class="st2" cx="124.3" cy="319.8" r="9.3"/>
			</g>
			<g id="Group-3_1_" transform="translate(453.500000, 85.000000) rotate(180.000000) translate(-453.500000, -85.000000) ">
				
					<g id="Group-2-Copy-2_2_" transform="translate(378.000000, 160.500000) rotate(90.000000) translate(-378.000000, -160.500000) translate(368.500000, -217.500000)">
					<path id="Line-2_13_" class="st3" d="M-105.5,787V70"/>
					<circle id="Oval-3_27_" class="st2" cx="-105.7" cy="59.8" r="9.3"/>
					<circle id="Oval-3_28_" class="st2" cx="-105.7" cy="796.8" r="9.3"/>
				</g>
				
					<g id="Group-2-Copy-5_1_" transform="translate(826.256620, 80.256620) rotate(45.000000) translate(-826.256620, -80.256620) translate(816.756620, -23.743380)">
					<path id="Line-2_14_" class="st3" d="M-107.5,161.9V-30.8"/>
					
						<ellipse id="Oval-3_29_" transform="matrix(0.7071 -0.7071 0.7071 0.7071 -5.9008 -86.7945)" class="st2" cx="-107.7" cy="-36.3" rx="9.3" ry="9.3"/>
				</g>
			</g>
			
				<g id="Group-2-Copy-8" transform="translate(73.760931, 592.500000) rotate(45.000000) translate(-73.760931, -592.500000) translate(64.260931, 509.000000)">
				<path id="Line-2_15_" class="st1" d="M126.5,190.1V57.3"/>
				
					<ellipse id="Oval-3_30_" transform="matrix(-0.7071 0.7071 -0.7071 -0.7071 254.685 4.4427)" class="st2" cx="126.4" cy="55" rx="9.3" ry="9.3"/>
				
					<ellipse id="Oval-3_31_" transform="matrix(-0.7071 0.7071 -0.7071 -0.7071 359.3346 257.093)" class="st2" cx="126.4" cy="203" rx="9.3" ry="9.3"/>
			</g>
			<g id="Group-2-Copy-2_3_" transform="translate(266.000000, 188.000000)">
				<path id="Line-2_16_" class="st1" d="M60,472.5v-338"/>
				<circle id="Oval-3_32_" class="st2" cx="59.8" cy="124.3" r="9.3"/>
				<circle id="Oval-3_33_" class="st2" cx="59.8" cy="485.3" r="9.3"/>
			</g>
			<g id="Group-2-Copy" transform="translate(193.000000, 130.000000)">
				<path id="Line-2_17_" class="st1" d="M60,753.5v-619"/>
				<circle id="Oval-3_34_" class="st2" cx="59.8" cy="124.3" r="9.3"/>
				<circle id="Oval-3_35_" class="st2" cx="59.8" cy="765.3" r="9.3"/>
			</g>
			
				<g id="Group-5_2_" transform="translate(355.000000, 146.000000) scale(1, -1) rotate(90.000000) translate(-355.000000, -146.000000) translate(299.000000, 57.000000)">
				<path id="Line-6_2_" class="st1" d="M-105.5-28v18"/>
				<path id="Line-7_2_" class="st1" d="M-104.5-8l91,94"/>
				<circle id="Oval-3_36_" class="st2" cx="-105.7" cy="-41.2" r="9.3"/>
				<circle id="Oval-3-Copy_2_" class="st2" cx="-12.7" cy="117.8" r="9.3"/>
				<path id="Line-8_2_" class="st1" d="M-12.5,89v19"/>
			</g>
			
				<g id="Group-2-Copy-12" transform="translate(1004.760931, 567.760931) rotate(45.000000) translate(-1004.760931, -567.760931) translate(995.260931, 484.260931)">
				<path id="Line-2_18_" class="st1" d="M126.5,190.1V57.3"/>
				
					<ellipse id="Oval-3_37_" transform="matrix(-0.7071 0.7071 -0.7071 -0.7071 254.685 4.4427)" class="st2" cx="126.4" cy="55" rx="9.3" ry="9.3"/>
				
					<ellipse id="Oval-3_38_" transform="matrix(-0.7071 0.7071 -0.7071 -0.7071 359.3346 257.093)" class="st2" cx="126.4" cy="203" rx="9.3" ry="9.3"/>
			</g>
		</g>
	</g>
</g>
</svg>
