<?xml version="1.0" encoding="UTF-8"?>
<svg width="1086px" height="661px" viewBox="0 0 1086 661" version="1.1" xmlns="http://www.w3.org/2000/svg" xmlns:xlink="http://www.w3.org/1999/xlink">
    <!-- Generator: Sketch 46 (44423) - http://www.bohemiancoding.com/sketch -->

    <style type="text/css">
            .bg-svg{position: absolute; z-index: -1;}
    </style>

    <title>traces</title>
    <desc>Created with Sketch.</desc>
    <defs></defs>
    <g id="Page-1" stroke="none" stroke-width="1" fill="none" fill-rule="evenodd" opacity="0.328183302">
        <g id="Artboard" transform="translate(-44.000000, -103.000000)" stroke="#20D3A3">
            <g id="traces" transform="translate(42.000000, 41.000000)">
                <g transform="translate(0.000000, 64.000000)">
                    <g id="Group-5" transform="translate(825.000000, 189.000000)">
                        <path d="M9.5,22.5 L9.5,40.5" id="Line-6" stroke-width="5" stroke-linecap="square"></path>
                        <path d="M10.5,42.5 L101.5,136.5" id="Line-7" stroke-width="5" stroke-linecap="square"></path>
                        <circle id="Oval-3" stroke-width="4" fill="#0F3E3F" cx="9.34710501" cy="9.34710501" r="9.34710501"></circle>
                        <circle id="Oval-3-Copy" stroke-width="4" fill="#0F3E3F" cx="102.347105" cy="168.347105" r="9.34710501"></circle>
                        <path d="M102.5,139.5 L102.5,158.5" id="Line-8" stroke-width="5" stroke-linecap="square"></path>
                    </g>
                    <g id="Group-2-Copy-13" transform="translate(1067.000000, 188.000000)">
                        <path d="M9.5,144.5 L9.5,11.6482323" id="Line-2" stroke-width="5" stroke-linecap="square"></path>
                        <circle id="Oval-3" stroke-width="4" fill="#0F3E3F" cx="9.34710501" cy="9.34710501" r="9.34710501"></circle>
                        <circle id="Oval-3" stroke-width="4" fill="#0F3E3F" cx="9.34710501" cy="157.347105" r="9.34710501"></circle>
                    </g>
                    <g id="Group-2-Copy-17" transform="translate(359.000000, 336.000000)">
                        <path d="M9.5,207.5 L9.5,11.6482323" id="Line-2" stroke-width="5" stroke-linecap="square"></path>
                        <circle id="Oval-3" stroke-width="4" fill="#0F3E3F" cx="9.34710501" cy="9.34710501" r="9.34710501"></circle>
                        <circle id="Oval-3" stroke-width="4" fill="#0F3E3F" cx="9.34710501" cy="219.347105" r="9.34710501"></circle>
                    </g>
                    <g id="Group-2-Copy-2" transform="translate(73.760931, 276.760931) rotate(45.000000) translate(-73.760931, -276.760931) translate(64.260931, 193.260931)">
                        <path d="M9.5,144.5 L9.5,11.6482323" id="Line-2" stroke-width="5" stroke-linecap="square"></path>
                        <circle id="Oval-3" stroke-width="4" fill="#0F3E3F" cx="9.34710501" cy="9.34710501" r="9.34710501"></circle>
                        <circle id="Oval-3" stroke-width="4" fill="#0F3E3F" cx="9.34710501" cy="157.347105" r="9.34710501"></circle>
                    </g>
                    <g id="Group-2-Copy-10" transform="translate(563.760931, 401.760931) scale(-1, 1) rotate(45.000000) translate(-563.760931, -401.760931) translate(554.260931, 318.260931)">
                        <path d="M9.5,144.5 L9.5,11.6482323" id="Line-2" stroke-width="5" stroke-linecap="square"></path>
                        <circle id="Oval-3" stroke-width="4" fill="#0F3E3F" cx="9.34710501" cy="9.34710501" r="9.34710501"></circle>
                        <circle id="Oval-3" stroke-width="4" fill="#0F3E3F" cx="9.34710501" cy="157.347105" r="9.34710501"></circle>
                    </g>
                    <g id="Group-2-Copy-15" transform="translate(669.760931, 401.760931) scale(-1, 1) rotate(45.000000) translate(-669.760931, -401.760931) translate(660.260931, 318.260931)">
                        <path d="M9.5,144.5 L9.5,11.6482323" id="Line-2" stroke-width="5" stroke-linecap="square"></path>
                        <circle id="Oval-3" stroke-width="4" fill="#0F3E3F" cx="9.34710501" cy="9.34710501" r="9.34710501"></circle>
                        <circle id="Oval-3" stroke-width="4" fill="#0F3E3F" cx="9.34710501" cy="157.347105" r="9.34710501"></circle>
                    </g>
                    <g id="Group-2-Copy-16" transform="translate(779.760931, 401.760931) scale(-1, 1) rotate(45.000000) translate(-779.760931, -401.760931) translate(770.260931, 318.260931)">
                        <path d="M9.5,144.5 L9.5,11.6482323" id="Line-2" stroke-width="5" stroke-linecap="square"></path>
                        <circle id="Oval-3" stroke-width="4" fill="#0F3E3F" cx="9.34710501" cy="9.34710501" r="9.34710501"></circle>
                        <circle id="Oval-3" stroke-width="4" fill="#0F3E3F" cx="9.34710501" cy="157.347105" r="9.34710501"></circle>
                    </g>
                    <g id="Group-2-Copy-6" transform="translate(73.760931, 376.500000) rotate(45.000000) translate(-73.760931, -376.500000) translate(64.260931, 293.000000)" fill="#0F3E3F">
                        <path d="M9.5,144.5 L9.5,11.6482323" id="Line-2" stroke-width="5" stroke-linecap="square"></path>
                        <circle id="Oval-3" stroke-width="4" cx="9.34710501" cy="9.34710501" r="9.34710501"></circle>
                        <circle id="Oval-3" stroke-width="4" cx="9.34710501" cy="157.347105" r="9.34710501"></circle>
                    </g>
                    <g id="Group-2-Copy-7" transform="translate(73.760931, 485.500000) rotate(45.000000) translate(-73.760931, -485.500000) translate(64.260931, 402.000000)" fill="#0F3E3F">
                        <path d="M9.5,144.5 L9.5,11.6482323" id="Line-2" stroke-width="5" stroke-linecap="square"></path>
                        <circle id="Oval-3" stroke-width="4" cx="9.34710501" cy="9.34710501" r="9.34710501"></circle>
                        <circle id="Oval-3" stroke-width="4" cx="9.34710501" cy="157.347105" r="9.34710501"></circle>
                    </g>
                    <g id="Group-2-Copy-11" transform="translate(896.000000, 99.500000) rotate(90.000000) translate(-896.000000, -99.500000) translate(886.500000, -90.500000)" fill="#0F3E3F">
                        <path d="M9.5,357.5 L9.5,19.5" id="Line-2" stroke-width="5" stroke-linecap="square"></path>
                        <circle id="Oval-3" stroke-width="4" cx="9.34710501" cy="9.34710501" r="9.34710501"></circle>
                        <circle id="Oval-3" stroke-width="4" cx="9.34710501" cy="370.347105" r="9.34710501"></circle>
                    </g>
                    <g id="Group-2-Copy-14" transform="translate(548.000000, 262.500000) rotate(90.000000) translate(-548.000000, -262.500000) translate(538.500000, 72.500000)" fill="#0F3E3F">
                        <path d="M9.5,357.5 L9.5,19.5" id="Line-2" stroke-width="5" stroke-linecap="square"></path>
                        <circle id="Oval-3" stroke-width="4" cx="9.34710501" cy="9.34710501" r="9.34710501"></circle>
                        <circle id="Oval-3" stroke-width="4" cx="9.34710501" cy="370.347105" r="9.34710501"></circle>
                    </g>
                    <g id="Group-3" transform="translate(453.500000, 85.000000) rotate(180.000000) translate(-453.500000, -85.000000) " fill="#0F3E3F">
                        <g id="Group-2-Copy-2" transform="translate(378.000000, 160.500000) rotate(90.000000) translate(-378.000000, -160.500000) translate(368.500000, -217.500000)">
                            <path d="M9.5,736.517434 L9.5,19.5" id="Line-2" stroke-width="5" stroke-linecap="square"></path>
                            <circle id="Oval-3" stroke-width="4" cx="9.34710501" cy="9.34710501" r="9.34710501"></circle>
                            <circle id="Oval-3" stroke-width="4" cx="9.34710501" cy="746.347105" r="9.34710501"></circle>
                        </g>
                        <g id="Group-2-Copy-5" transform="translate(826.256620, 80.256620) rotate(45.000000) translate(-826.256620, -80.256620) translate(816.756620, -23.743380)">
                            <path d="M9.5,207.5 L9.5,14.8578644" id="Line-2" stroke-width="5" stroke-linecap="square"></path>
                            <circle id="Oval-3" stroke-width="4" cx="9.34710501" cy="9.34710501" r="9.34710501"></circle>
                        </g>
                    </g>
                    <g id="Group-2-Copy-8" transform="translate(73.760931, 592.500000) rotate(45.000000) translate(-73.760931, -592.500000) translate(64.260931, 509.000000)">
                        <path d="M9.5,144.5 L9.5,11.6482323" id="Line-2" stroke-width="5" stroke-linecap="square"></path>
                        <circle id="Oval-3" stroke-width="4" fill="#0F3E3F" cx="9.34710501" cy="9.34710501" r="9.34710501"></circle>
                        <circle id="Oval-3" stroke-width="4" fill="#0F3E3F" cx="9.34710501" cy="157.347105" r="9.34710501"></circle>
                    </g>
                    <g id="Group-2-Copy-2" transform="translate(266.000000, 188.000000)">
                        <path d="M9.5,357.5 L9.5,19.5" id="Line-2" stroke-width="5" stroke-linecap="square"></path>
                        <circle id="Oval-3" stroke-width="4" fill="#0F3E3F" cx="9.34710501" cy="9.34710501" r="9.34710501"></circle>
                        <circle id="Oval-3" stroke-width="4" fill="#0F3E3F" cx="9.34710501" cy="370.347105" r="9.34710501"></circle>
                    </g>
                    <g id="Group-2-Copy-9" transform="translate(990.000000, 188.000000)">
                        <path d="M9.5,275.5 L9.5,19.5" id="Line-2" stroke-width="5" stroke-linecap="square"></path>
                        <circle id="Oval-3" stroke-width="4" fill="#0F3E3F" cx="9.34710501" cy="9.34710501" r="9.34710501"></circle>
                        <circle id="Oval-3" stroke-width="4" fill="#0F3E3F" cx="9.34710501" cy="285.347105" r="9.34710501"></circle>
                    </g>
                    <g id="Group-2-Copy" transform="translate(193.000000, 130.000000)">
                        <path d="M9.5,420.5 L9.5,14.5" id="Line-2" stroke-width="5" stroke-linecap="square"></path>
                        <circle id="Oval-3" stroke-width="4" fill="#0F3E3F" cx="9.34710501" cy="9.34710501" r="9.34710501"></circle>
                        <circle id="Oval-3" stroke-width="4" fill="#0F3E3F" cx="9.34710501" cy="430.347105" r="9.34710501"></circle>
                    </g>
                    <g id="Group-5" transform="translate(355.000000, 146.000000) scale(1, -1) rotate(90.000000) translate(-355.000000, -146.000000) translate(299.000000, 57.000000)">
                        <path d="M9.5,22.5 L9.5,40.5" id="Line-6" stroke-width="5" stroke-linecap="square"></path>
                        <path d="M10.5,42.5 L101.5,136.5" id="Line-7" stroke-width="5" stroke-linecap="square"></path>
                        <circle id="Oval-3" stroke-width="4" fill="#0F3E3F" cx="9.34710501" cy="9.34710501" r="9.34710501"></circle>
                        <circle id="Oval-3-Copy" stroke-width="4" fill="#0F3E3F" cx="102.347105" cy="168.347105" r="9.34710501"></circle>
                        <path d="M102.5,139.5 L102.5,158.5" id="Line-8" stroke-width="5" stroke-linecap="square"></path>
                    </g>
                    <g id="Group-5" transform="translate(554.000000, 601.000000) scale(1, -1) rotate(90.000000) translate(-554.000000, -601.000000) translate(498.000000, 512.000000)">
                        <path d="M9.5,22.5 L9.5,40.5" id="Line-6" stroke-width="5" stroke-linecap="square"></path>
                        <path d="M10.5,42.5 L101.5,136.5" id="Line-7" stroke-width="5" stroke-linecap="square"></path>
                        <circle id="Oval-3" stroke-width="4" fill="#0F3E3F" cx="9.34710501" cy="9.34710501" r="9.34710501"></circle>
                        <circle id="Oval-3-Copy" stroke-width="4" fill="#0F3E3F" cx="102.347105" cy="168.347105" r="9.34710501"></circle>
                        <path d="M102.5,139.5 L102.5,158.5" id="Line-8" stroke-width="5" stroke-linecap="square"></path>
                    </g>
                    <g id="Group-2-Copy-14" transform="translate(896.000000, 568.500000) rotate(90.000000) translate(-896.000000, -568.500000) translate(886.500000, 378.500000)" fill="#0F3E3F">
                        <path d="M9.5,357.5 L9.5,19.5" id="Line-2" stroke-width="5" stroke-linecap="square"></path>
                        <circle id="Oval-3" stroke-width="4" cx="9.34710501" cy="9.34710501" r="9.34710501"></circle>
                        <circle id="Oval-3" stroke-width="4" cx="9.34710501" cy="370.347105" r="9.34710501"></circle>
                    </g>
                    <g id="Group-2-Copy-18" transform="translate(885.500000, 647.500000) rotate(90.000000) translate(-885.500000, -647.500000) translate(876.000000, 447.000000)" fill="#0F3E3F">
                        <path d="M9.5,382.5 L9.5,19.5" id="Line-2" stroke-width="5" stroke-linecap="square"></path>
                        <circle id="Oval-3" stroke-width="4" cx="9.34710501" cy="9.34710501" r="9.34710501"></circle>
                        <circle id="Oval-3" stroke-width="4" cx="9.34710501" cy="391.347105" r="9.34710501"></circle>
                    </g>
                </g>
            </g>
        </g>
    </g>
</svg>